# xmcd CD database file
#
# Track frame offsets:
#	150
#	9869
#	24063
#	42073
#	103662
#	121008
#	147464
#	190584
#	210590
#	227445
#	234257
#	240836
#	267890
#	282983
#
# Disc length: 3777 seconds
#
# Revision: 3
# Processed by: cddbd v1.4PL0 Copyright (c) Steve Scherf et al.
# Submitted via: CDex 1.50beta10
#
DISCID=9f0ebf0e
DTITLE=Benjamin v. Stuckrad-Barre - Bootleg - Outtakes
DYEAR=1999
DGENRE=Speech
TTITLE0=Ulrich Wickert: Prohibition and Prohibition
TTITLE1=Das Götz Alsmann Bossa Nova Trio: Versuch über die Jukebox
TTITLE2=Rov Knullade - T(ürlich)-Shirts (If There's Somebody Calling Me On)
TTITLE3=Katja Kessler: Hamburger Anthologie - Porno-Poeme
TTITLE4=Aus dem Post-Eingangskorb des Veranstalters
TTITLE5=Die Kartenlegerin: All Tomorrow's Parties
TTITLE6=Being Mola Adebisi. Empirische Beweisführung: Gerechtigkeit für den Szene-Duden
TTITLE7=Sibylle Berg: Bootie Call - Parasiten der Gesellschaft
TTITLE8=Frank Elstners Lieblingswitz und einige Haushaltstips
TTITLE9=Dressed For Succes - z.B. Franka Potente
TTITLE10=Zurück ins Funkhaus (aber schnell)
TTITLE11=Christian Kracht, Florian Illies: Scenes From An Italien Restaurant
TTITLE12=Eckhart Nickel: Künstliche Paradiese
TTITLE13=Ulrich Wickert: Das Wetter
EXTD=YEAR: 1999
EXTT0=
EXTT1=
EXTT2=
EXTT3=
EXTT4=
EXTT5=
EXTT6=
EXTT7=
EXTT8=
EXTT9=
EXTT10=
EXTT11=
EXTT12=
EXTT13=
PLAYORDER=
